<?xml version="1.0" ?><!DOCTYPE svg  PUBLIC '-//W3C//DTD SVG 1.1//EN'  'http://www.w3.org/Graphics/SVG/1.1/DTD/svg11.dtd'><svg height="512px" style="enable-background:new 0 0 512 512;" version="1.1" viewBox="0 0 512 512" width="512px" xml:space="preserve" xmlns="http://www.w3.org/2000/svg" xmlns:xlink="http://www.w3.org/1999/xlink"><g id="_x37_4_x2C__POS_x2C__Accounting_x2C__Sale_x2C__System_x2C__Files"><g><path d="M413.263,320.688h26.108l0.279-0.959c0.247-0.988,0.37-2.069,0.37-3.213    c0-3.77-1.544-7.199-4.017-9.672c-2.473-2.472-5.901-4.017-9.67-4.017c-3.801,0-7.2,1.545-9.673,3.985    c-2.472,2.504-4.017,5.934-4.017,9.703c0,1.144,0.123,2.225,0.37,3.213L413.263,320.688z M399.203,388.418v-59.45h-17.026v59.45    H399.203z M399.203,264.791v-20.703h-17.026v20.703H399.203z M403.098,272.393h-0.094h-20.827v48.975h20.827h0.03h0.063h2.533    c-0.372-1.607-0.588-3.244-0.588-4.852c0-5.84,2.38-11.186,6.242-15.017c3.894-3.894,9.207-6.272,15.049-6.272    c5.869,0,11.185,2.379,15.047,6.242c3.832,3.861,6.241,9.176,6.241,15.047c0,1.638-0.216,3.244-0.588,4.852h11.682l27.283-25.06    l-27.222-23.915H403.098z M399.203,46.674H136.189v16.995h242.188c2.102,0,3.8,1.699,3.8,3.801v112.44h17.026V46.674z     M317.537,334.468H168.634v10.567h148.903V334.468z M164.833,326.866h156.504c2.1,0,3.801,1.731,3.801,3.801v18.138    c0,2.102-1.701,3.801-3.801,3.801H164.833c-2.103,0-3.801-1.699-3.801-3.801v-18.138    C161.033,328.598,162.731,326.866,164.833,326.866z M259.075,226.136c-4.079-4.079-9.733-6.612-16.006-6.612    c-6.242,0-11.896,2.533-15.974,6.612c-4.109,4.079-6.644,9.765-6.644,16.006c0,6.18,2.471,11.772,6.458,15.82l0.186,0.185    c4.078,4.079,9.732,6.613,15.974,6.613c6.273,0,11.927-2.534,16.006-6.613c4.109-4.108,6.644-9.764,6.644-16.005    c0-6.149-2.473-11.741-6.459-15.821L259.075,226.136z M243.069,211.922c8.374,0,15.914,3.369,21.383,8.838l0.185,0.217    c5.347,5.469,8.684,12.945,8.684,21.165c0,8.343-3.398,15.913-8.868,21.382c-5.47,5.439-13.01,8.838-21.383,8.838    c-8.342,0-15.88-3.398-21.35-8.838l-0.218-0.278c-5.345-5.438-8.651-12.884-8.651-21.104c0-8.343,3.399-15.882,8.869-21.352    C227.188,215.291,234.727,211.922,243.069,211.922z M357.119,197.338h-11.99h-0.092H161.249l-32.196,89.607h11.988h0.093h183.787    L357.119,197.338z M144.935,220.389l9.979-27.809c0.434-1.639,1.917-2.843,3.678-2.843h182.645v-75.425H144.935V220.389z     M341.236,263.895l-9.98,27.81c-0.432,1.637-1.916,2.843-3.677,2.843H144.935v75.424h196.302V263.895z M348.838,189.737h13.657    c2.101,0,3.801,1.699,3.801,3.8c0,0.557-0.124,1.112-0.341,1.607l-17.117,47.615v131.012c0,2.07-1.7,3.77-3.801,3.77H141.134    c-2.103,0-3.801-1.699-3.801-3.77v-79.225h-13.657c-2.103,0-3.801-1.699-3.801-3.801c0-0.557,0.123-1.113,0.34-1.607    l17.118-47.646v-130.98c0-2.07,1.698-3.801,3.801-3.801h203.903c2.101,0,3.801,1.73,3.801,3.801V189.737z M421.266,236.487h26.109    l0.279-0.958c0.216-0.989,0.37-2.07,0.37-3.213c0-3.771-1.546-7.2-4.017-9.672c-2.473-2.473-5.903-3.986-9.673-3.986    c-3.801,0-7.229,1.514-9.67,3.986c-2.504,2.472-4.019,5.901-4.019,9.672c0,1.174,0.125,2.254,0.372,3.213L421.266,236.487z     M413.479,236.487c-0.277-1.391-0.432-2.781-0.432-4.171c0-5.841,2.379-11.155,6.241-15.018s9.178-6.242,15.047-6.242    c5.872,0,11.187,2.38,15.049,6.211c3.831,3.863,6.21,9.178,6.21,15.049c0,1.39-0.122,2.78-0.401,4.171h3.523l27.283-25.06    l-27.222-23.916h-55.68h-0.094h-20.827v48.976h20.827h0.094H413.479z M405.259,436.806c2.103,0,3.801,1.73,3.801,3.8    c0,2.102-1.698,3.801-3.801,3.801h-55.958c-2.102,0-3.801-1.699-3.801-3.801c0-2.069,1.699-3.8,3.801-3.8H405.259z     M335.768,457.725c2.1,0,3.801,1.699,3.801,3.801c0,2.101-1.701,3.801-3.801,3.801H197.802c-2.101,0-3.799-1.7-3.799-3.801    c0-2.102,1.699-3.801,3.799-3.801H335.768z M48.56,465.326c-2.102,0-3.801-1.7-3.801-3.801c0-2.102,1.699-3.801,3.801-3.801    h55.957c2.103,0,3.801,1.699,3.801,3.801c0,2.101-1.698,3.801-3.801,3.801H48.56z M153.894,465.326c-2.1,0-3.801-1.7-3.801-3.801    c0-2.102,1.701-3.801,3.801-3.801h25.523c2.102,0,3.801,1.699,3.801,3.801c0,2.101-1.699,3.801-3.801,3.801H153.894z     M374.576,392.311v-0.092V325.26v-0.093v-0.093v-56.391v-0.092v-0.094V240.38v-0.092v-0.093v-56.391v-0.094v-0.092V71.27H132.39    h-0.093h-20.703v0.063L26.096,411.283c-0.463,2.039,0.835,4.079,2.875,4.542c2.039,0.433,4.048-0.834,4.511-2.873l78.113-310.846    v310.907h262.982V392.311z M118.052,444.406c-2.101,0-3.801-1.699-3.801-3.801c0-2.069,1.7-3.8,3.801-3.8h214.284    c2.103,0,3.801,1.73,3.801,3.8c0,2.102-1.698,3.801-3.801,3.801H118.052z" style="fill-rule:evenodd;clip-rule:evenodd;" fill="#FFFFFF"/></g></g><g id="Layer_1"/></svg>
